<svg xmlns="http://www.w3.org/2000/svg" viewBox="0 0 64 64"><g data-name="Layer 2"><polygon fill="#8dc1f3" points="37 12 37 2 29 2 29 12 24 12 33 23 42 12 37 12"/><path fill="#e4ad5d" d="M53,62H40l6-36h9V60A2,2,0,0,1,53,62Z"/><path fill="#ffbd5a" d="M10,26H46a0,0,0,0,1,0,0V62a0,0,0,0,1,0,0H12a2,2,0,0,1-2-2V26A0,0,0,0,1,10,26Z"/><path fill="#fff" d="M15,58a1,1,0,0,1-1-1V53a1,1,0,0,1,2,0v4A1,1,0,0,1,15,58Zm1-8V49a1,1,0,0,0-2,0v1a1,1,0,0,0,2,0Z"/><rect width="36" height="15" x="10" y="26" fill="#e4ad5d"/><polygon fill="#ffbd5a" points="40 35 4 35 10 26 46 26 40 35"/><polygon fill="#e4ad5d" points="60 35 51 35 46 26 55 26 60 35"/><polygon fill="#7eaada" points="37 12 37 2 33 2 33 23 42 12 37 12"/><path fill="#3d436b" d="M42,50a1,1,0,0,1-1,1H33a1,1,0,1,1,0-2h8A1,1,0,0,1,42,50Zm-1,3H35a1,1,0,0,0,0,2h6a1,1,0,0,0,0-2Zm0,4H33a1,1,0,1,0,0,2h8a1,1,0,0,0,0-2ZM60.8622,35.5073A1.0006,1.0006,0,0,1,60,36H56V60a3.0033,3.0033,0,0,1-3,3H46.24a.932.932,0,0,1-.12-.0242A.932.932,0,0,1,46,63H12a3.0033,3.0033,0,0,1-3-3V36H4a1,1,0,0,1-.8321-1.5547l6-9A1,1,0,0,1,10,25H55a.9991.9991,0,0,1,.8741.5142l5,9A1.0012,1.0012,0,0,1,60.8622,35.5073ZM5.868,34H39.4647l4.667-7H10.535ZM45,61V29.3027l-4.168,6.252A1,1,0,0,1,40,36H11V60a1.0009,1.0009,0,0,0,1,1Zm9-25H51a.9989.9989,0,0,1-.874-.5142L47,29.8591V61h6a1.0009,1.0009,0,0,0,1-1Zm4.3008-2-3.89-7h-6.712l3.89,7ZM23.2255,12.6333A1.0006,1.0006,0,0,1,24,11h4V2a1,1,0,0,1,1-1h8a1,1,0,0,1,1,1v9h4a1.0006,1.0006,0,0,1,.7744,1.6333l-9,11a1.001,1.001,0,0,1-1.5488,0ZM26.11,13,33,21.4209,39.89,13H37a1,1,0,0,1-1-1V3H30v9a1,1,0,0,1-1,1Z"/></g></svg>